<svg xmlns="http://www.w3.org/2000/svg" viewBox="0 0 640 360" role="img" aria-label="RAM 1200 camioneta 4x4">
  <defs>
    <linearGradient id="sky" x1="0" y1="0" x2="0" y2="1">
      <stop offset="0" stop-color="#F8FBFF"/>
      <stop offset="1" stop-color="#EAF2FF"/>
    </linearGradient>
    <linearGradient id="paint" x1="0" y1="0" x2="1" y2="1">
      <stop offset="0" stop-color="#FDE68A"/>
      <stop offset="0.45" stop-color="#CA8A04"/>
      <stop offset="1" stop-color="#111827"/>
    </linearGradient>
    <filter id="shadow" x="-20%" y="-20%" width="140%" height="140%">
      <feDropShadow dx="0" dy="10" stdDeviation="9" flood-color="#000000" flood-opacity="0.22"/>
    </filter>
  </defs>

  <rect width="640" height="360" rx="28" fill="url(#sky)"/>
  <ellipse cx="318" cy="293" rx="220" ry="25" fill="#0F172A" opacity="0.12"/>

  <g filter="url(#shadow)">
    <path d="M118 210 L154 150 C168 126 192 112 221 112 H333 C361 112 384 129 397 154 L421 198 L501 204 C520 206 535 221 535 240 V264 H105 V235 C105 222 111 214 118 210Z" fill="url(#paint)"/>
    <path d="M181 151 C191 133 208 125 228 125 H274 V195 H145 L181 151Z" fill="#DCEBFF"/>
    <path d="M287 125 H329 C350 125 365 137 374 157 L390 195 H287 V125Z" fill="#DCEBFF"/>
    <path d="M135 206 H505 C521 206 532 219 532 238 V248 H107 V235 C107 222 114 212 135 206Z" fill="#CA8A04" opacity="0.95"/>
    <path d="M421 201 L499 207 C516 209 529 221 532 238 H431 C427 222 423 211 421 201Z" fill="#FDE68A" opacity="0.7"/>
    <path d="M128 244 H531 V267 H105 V252 C105 247 110 244 128 244Z" fill="#111827"/>
    <rect x="465" y="218" width="46" height="14" rx="7" fill="#FDE68A"/>
    <rect x="119" y="219" width="38" height="12" rx="6" fill="#E0F2FE"/>
    <path d="M184 126 L162 195" stroke="#111827" stroke-width="7" opacity="0.25"/>
    <path d="M287 126 V195" stroke="#111827" stroke-width="7" opacity="0.22"/>
    <path d="M398 197 H139" stroke="#FFFFFF" stroke-width="6" opacity="0.4"/>
  </g>

  <g>
    <circle cx="190" cy="267" r="45" fill="#111827"/>
    <circle cx="190" cy="267" r="28" fill="#CBD5E1"/>
    <circle cx="190" cy="267" r="12" fill="#334155"/>
    <circle cx="444" cy="267" r="45" fill="#111827"/>
    <circle cx="444" cy="267" r="28" fill="#CBD5E1"/>
    <circle cx="444" cy="267" r="12" fill="#334155"/>
  </g>

  <g fill="#111827" opacity="0.78">
    <rect x="144" y="281" width="42" height="8" rx="4"/>
    <rect x="241" y="282" width="95" height="8" rx="4"/>
    <rect x="487" y="282" width="43" height="8" rx="4"/>
  </g>

  <text x="320" y="330" text-anchor="middle" font-family="Arial, Helvetica, sans-serif" font-size="23" font-weight="700" fill="#1F2937">RAM 1200 4x4</text>
</svg>
